HIERARCHY
ROOT Hips
{
  OFFSET 0.000000 0.000000 0.000000
  CHANNELS 6 Xposition Yposition Zposition Zrotation Yrotation Xrotation
  JOINT Spine1
  {
    OFFSET -0.013727 5.003763 -0.053727
    CHANNELS 3 Zrotation Yrotation Xrotation
    JOINT Spine2
    {
      OFFSET -0.000000 7.125301 -0.029825
      CHANNELS 3 Zrotation Yrotation Xrotation
      JOINT Chest
      {
        OFFSET -0.000001 7.550063 -0.815971
        CHANNELS 3 Zrotation Yrotation Xrotation
        JOINT Neck1
        {
          OFFSET -0.181677 26.311295 -0.553348
          CHANNELS 3 Zrotation Yrotation Xrotation
          JOINT Neck2
          {
            OFFSET -0.000003 7.709397 2.302585
            CHANNELS 3 Zrotation Yrotation Xrotation
            JOINT Head
            {
              OFFSET -0.000005 6.128916 1.953709
              CHANNELS 3 Zrotation Yrotation Xrotation
              JOINT HeadEnd
              {
                OFFSET 0.003598 16.065403 -1.835379
                CHANNELS 3 Zrotation Yrotation Xrotation
                End Site
                {
                  OFFSET 0.0 1.0 0.0
                }
              }
              JOINT Jaw
              {
                OFFSET 0.002637 0.475592 3.094941
                CHANNELS 3 Zrotation Yrotation Xrotation
                End Site
                {
                  OFFSET 0.0 1.0 0.0
                }
              }
              JOINT LeftEye
              {
                OFFSET 3.206381 5.380205 7.586883
                CHANNELS 3 Zrotation Yrotation Xrotation
                End Site
                {
                  OFFSET 0.0 1.0 0.0
                }
              }
              JOINT RightEye
              {
                OFFSET -3.222440 5.361869 7.558234
                CHANNELS 3 Zrotation Yrotation Xrotation
                End Site
                {
                  OFFSET 0.0 1.0 0.0
                }
              }
            }
          }
        }
        JOINT LeftShoulder
        {
          OFFSET 1.621652 23.237164 5.113413
          CHANNELS 3 Zrotation Yrotation Xrotation
          JOINT LeftArm
          {
            OFFSET 14.919846 0.000002 -5.502326
            CHANNELS 3 Zrotation Yrotation Xrotation
            JOINT LeftForeArm
            {
              OFFSET 28.739307 0.000000 -0.002588
              CHANNELS 3 Zrotation Yrotation Xrotation
              JOINT LeftHand
              {
                OFFSET 27.093981 -0.000001 0.002609
                CHANNELS 3 Zrotation Yrotation Xrotation
                JOINT LeftHandThumb1
                {
                  OFFSET 2.276482 -1.392045 3.191413
                  CHANNELS 3 Zrotation Yrotation Xrotation
                  JOINT LeftHandThumb2
                  {
                    OFFSET 4.012836 -1.828127 1.641654
                    CHANNELS 3 Zrotation Yrotation Xrotation
                    JOINT LeftHandThumb3
                    {
                      OFFSET 2.798515 0.000000 -0.000003
                      CHANNELS 3 Zrotation Yrotation Xrotation
                      JOINT LeftHandThumbEnd
                      {
                        OFFSET 3.180793 -0.000004 0.000004
                        CHANNELS 3 Zrotation Yrotation Xrotation
                        End Site
                        {
                          OFFSET 0.0 1.0 0.0
                        }
                      }
                    }
                  }
                }
                JOINT LeftHandIndex1
                {
                  OFFSET 3.247555 -0.531998 2.296169
                  CHANNELS 3 Zrotation Yrotation Xrotation
                  JOINT LeftHandIndex2
                  {
                    OFFSET 6.364578 0.012060 0.178600
                    CHANNELS 3 Zrotation Yrotation Xrotation
                    JOINT LeftHandIndex3
                    {
                      OFFSET 3.662364 0.000000 0.000000
                      CHANNELS 3 Zrotation Yrotation Xrotation
                      JOINT LeftHandIndex4
                      {
                        OFFSET 2.329242 0.000004 0.000004
                        CHANNELS 3 Zrotation Yrotation Xrotation
                        JOINT LeftHandIndexEnd
                        {
                          OFFSET 2.759615 -0.180537 -0.113024
                          CHANNELS 3 Zrotation Yrotation Xrotation
                          End Site
                          {
                            OFFSET 0.0 1.0 0.0
                          }
                        }
                      }
                    }
                  }
                }
                JOINT LeftHandMiddle1
                {
                  OFFSET 3.163495 0.240981 1.000332
                  CHANNELS 3 Zrotation Yrotation Xrotation
                  JOINT LeftHandMiddle2
                  {
                    OFFSET 6.190780 -0.259278 -1.002548
                    CHANNELS 3 Zrotation Yrotation Xrotation
                    JOINT LeftHandMiddle3
                    {
                      OFFSET 4.356520 -0.000004 -0.000001
                      CHANNELS 3 Zrotation Yrotation Xrotation
                      JOINT LeftHandMiddle4
                      {
                        OFFSET 2.996877 -0.000008 0.000000
                        CHANNELS 3 Zrotation Yrotation Xrotation
                        JOINT LeftHandMiddleEnd
                        {
                          OFFSET 2.304287 -0.294569 -0.031741
                          CHANNELS 3 Zrotation Yrotation Xrotation
                          End Site
                          {
                            OFFSET 0.0 1.0 0.0
                          }
                        }
                      }
                    }
                  }
                }
                JOINT LeftHandRing1
                {
                  OFFSET 2.882643 -0.053652 -0.322543
                  CHANNELS 3 Zrotation Yrotation Xrotation
                  JOINT LeftHandRing2
                  {
                    OFFSET 5.854541 -0.486202 -1.373841
                    CHANNELS 3 Zrotation Yrotation Xrotation
                    JOINT LeftHandRing3
                    {
                      OFFSET 4.350578 0.000000 0.000003
                      CHANNELS 3 Zrotation Yrotation Xrotation
                      JOINT LeftHandRing4
                      {
                        OFFSET 2.651321 0.000007 0.000002
                        CHANNELS 3 Zrotation Yrotation Xrotation
                        JOINT LeftHandRingEnd
                        {
                          OFFSET 1.936105 0.077687 -0.000071
                          CHANNELS 3 Zrotation Yrotation Xrotation
                          End Site
                          {
                            OFFSET 0.0 1.0 0.0
                          }
                        }
                      }
                    }
                  }
                }
                JOINT LeftHandPinky1
                {
                  OFFSET 2.865500 -0.310005 -1.600378
                  CHANNELS 3 Zrotation Yrotation Xrotation
                  JOINT LeftHandPinky2
                  {
                    OFFSET 5.087849 -1.331141 -1.771230
                    CHANNELS 3 Zrotation Yrotation Xrotation
                    JOINT LeftHandPinky3
                    {
                      OFFSET 3.070974 0.000004 0.000000
                      CHANNELS 3 Zrotation Yrotation Xrotation
                      JOINT LeftHandPinky4
                      {
                        OFFSET 1.549672 0.000000 0.000001
                        CHANNELS 3 Zrotation Yrotation Xrotation
                        JOINT LeftHandPinkyEnd
                        {
                          OFFSET 1.944893 -0.157802 0.057219
                          CHANNELS 3 Zrotation Yrotation Xrotation
                          End Site
                          {
                            OFFSET 0.0 1.0 0.0
                          }
                        }
                      }
                    }
                  }
                }
              }
            }
          }
        }
        JOINT RightShoulder
        {
          OFFSET -1.380118 23.180309 5.214158
          CHANNELS 3 Zrotation Yrotation Xrotation
          JOINT RightArm
          {
            OFFSET -15.037196 0.000012 -5.545604
            CHANNELS 3 Zrotation Yrotation Xrotation
            JOINT RightForeArm
            {
              OFFSET -28.736639 0.000002 -0.002597
              CHANNELS 3 Zrotation Yrotation Xrotation
              JOINT RightHand
              {
                OFFSET -27.133619 -0.000000 0.002613
                CHANNELS 3 Zrotation Yrotation Xrotation
                JOINT RightHandThumb1
                {
                  OFFSET -2.274032 -1.383988 3.163127
                  CHANNELS 3 Zrotation Yrotation Xrotation
                  JOINT RightHandThumb2
                  {
                    OFFSET -4.011429 -1.827466 1.640914
                    CHANNELS 3 Zrotation Yrotation Xrotation
                    JOINT RightHandThumb3
                    {
                      OFFSET -2.794935 -0.000004 -0.000003
                      CHANNELS 3 Zrotation Yrotation Xrotation
                      JOINT RightHandThumbEnd
                      {
                        OFFSET -3.183852 0.000004 0.000001
                        CHANNELS 3 Zrotation Yrotation Xrotation
                        End Site
                        {
                          OFFSET 0.0 1.0 0.0
                        }
                      }
                    }
                  }
                }
                JOINT RightHandIndex1
                {
                  OFFSET -3.253266 -0.520057 2.282866
                  CHANNELS 3 Zrotation Yrotation Xrotation
                  JOINT RightHandIndex2
                  {
                    OFFSET -6.341917 0.012471 0.178266
                    CHANNELS 3 Zrotation Yrotation Xrotation
                    JOINT RightHandIndex3
                    {
                      OFFSET -3.654871 -0.000008 -0.000000
                      CHANNELS 3 Zrotation Yrotation Xrotation
                      JOINT RightHandIndex4
                      {
                        OFFSET -2.327586 0.000000 0.000001
                        CHANNELS 3 Zrotation Yrotation Xrotation
                        JOINT RightHandIndexEnd
                        {
                          OFFSET -2.761790 -0.180656 -0.113078
                          CHANNELS 3 Zrotation Yrotation Xrotation
                          End Site
                          {
                            OFFSET 0.0 1.0 0.0
                          }
                        }
                      }
                    }
                  }
                }
                JOINT RightHandMiddle1
                {
                  OFFSET -3.168106 0.246593 1.001030
                  CHANNELS 3 Zrotation Yrotation Xrotation
                  JOINT RightHandMiddle2
                  {
                    OFFSET -6.180828 -0.258836 -1.000895
                    CHANNELS 3 Zrotation Yrotation Xrotation
                    JOINT RightHandMiddle3
                    {
                      OFFSET -4.348901 0.000000 -0.000000
                      CHANNELS 3 Zrotation Yrotation Xrotation
                      JOINT RightHandMiddle4
                      {
                        OFFSET -3.000240 -0.000004 -0.000002
                        CHANNELS 3 Zrotation Yrotation Xrotation
                        JOINT RightHandMiddleEnd
                        {
                          OFFSET -2.302520 -0.294370 -0.031706
                          CHANNELS 3 Zrotation Yrotation Xrotation
                          End Site
                          {
                            OFFSET 0.0 1.0 0.0
                          }
                        }
                      }
                    }
                  }
                }
                JOINT RightHandRing1
                {
                  OFFSET -2.885690 -0.067952 -0.308858
                  CHANNELS 3 Zrotation Yrotation Xrotation
                  JOINT RightHandRing2
                  {
                    OFFSET -5.854198 -0.486130 -1.373731
                    CHANNELS 3 Zrotation Yrotation Xrotation
                    JOINT RightHandRing3
                    {
                      OFFSET -4.338810 -0.000004 -0.000000
                      CHANNELS 3 Zrotation Yrotation Xrotation
                      JOINT RightHandRing4
                      {
                        OFFSET -2.654903 -0.000004 0.000004
                        CHANNELS 3 Zrotation Yrotation Xrotation
                        JOINT RightHandRingEnd
                        {
                          OFFSET -1.933568 0.077527 -0.000052
                          CHANNELS 3 Zrotation Yrotation Xrotation
                          End Site
                          {
                            OFFSET 0.0 1.0 0.0
                          }
                        }
                      }
                    }
                  }
                }
                JOINT RightHandPinky1
                {
                  OFFSET -2.866425 -0.342796 -1.584145
                  CHANNELS 3 Zrotation Yrotation Xrotation
                  JOINT RightHandPinky2
                  {
                    OFFSET -5.091371 -1.332055 -1.772385
                    CHANNELS 3 Zrotation Yrotation Xrotation
                    JOINT RightHandPinky3
                    {
                      OFFSET -3.062664 -0.000004 0.000001
                      CHANNELS 3 Zrotation Yrotation Xrotation
                      JOINT RightHandPinky4
                      {
                        OFFSET -1.546529 0.000004 -0.000002
                        CHANNELS 3 Zrotation Yrotation Xrotation
                        JOINT RightHandPinkyEnd
                        {
                          OFFSET -1.945119 -0.157718 0.057211
                          CHANNELS 3 Zrotation Yrotation Xrotation
                          End Site
                          {
                            OFFSET 0.0 1.0 0.0
                          }
                        }
                      }
                    }
                  }
                }
              }
            }
          }
        }
      }
    }
  }
  JOINT LeftLeg
  {
    OFFSET 10.043214 -8.434526 2.595655
    CHANNELS 3 Zrotation Yrotation Xrotation
    JOINT LeftShin
    {
      OFFSET -0.000001 -43.221752 -0.802913
      CHANNELS 3 Zrotation Yrotation Xrotation
      JOINT LeftFoot
      {
        OFFSET 0.000001 -42.155094 -3.481523
        CHANNELS 3 Zrotation Yrotation Xrotation
        JOINT LeftToeBase
        {
          OFFSET 0.000000 -5.059472 13.231529
          CHANNELS 3 Zrotation Yrotation Xrotation
          JOINT LeftToeEnd
          {
            OFFSET -0.009607 -1.647619 6.513017
            CHANNELS 3 Zrotation Yrotation Xrotation
            End Site
            {
              OFFSET 0.0 1.0 0.0
            }
          }
        }
      }
    }
  }
  JOINT RightLeg
  {
    OFFSET -10.047278 -8.295260 2.620317
    CHANNELS 3 Zrotation Yrotation Xrotation
    JOINT RightShin
    {
      OFFSET 0.000001 -43.362206 -0.805556
      CHANNELS 3 Zrotation Yrotation Xrotation
      JOINT RightFoot
      {
        OFFSET 0.000002 -42.117393 -3.478398
        CHANNELS 3 Zrotation Yrotation Xrotation
        JOINT RightToeBase
        {
          OFFSET -0.000000 -5.079609 13.284196
          CHANNELS 3 Zrotation Yrotation Xrotation
          JOINT RightToeEnd
          {
            OFFSET 0.009532 -1.634378 6.460591
            CHANNELS 3 Zrotation Yrotation Xrotation
            End Site
            {
              OFFSET 0.0 1.0 0.0
            }
          }
        }
      }
    }
  }
}
MOTION
Frames: 4
Frame Time: 0.033333
-0.788867 103.666649 -24.921638 -178.799544 -64.479098 179.719018 -3.909120 -3.098401 7.674848 0.994875 0.650491 -7.033559 2.741956 -3.211419 1.775219 4.032668 -5.903322 3.018839 14.007823 -2.277957 7.519964 -2.962005 -31.293478 4.864806 -0.000334 -0.000743 -0.000829 0.913350 0.207264 -2.373059 0.032110 0.335326 -1.513962 -0.408003 2.062305 -1.527170 10.212044 -12.103509 17.539417 -29.101001 -7.629421 -44.735416 49.454760 -72.950643 -42.897683 35.911718 17.386716 -17.031674 -1.394392 13.670827 17.367164 -4.327329 -8.719925 -6.547777 1.518438 6.635764 -2.378666 -0.000469 0.000020 -0.000164 3.740909 -2.984349 3.614658 -42.730976 7.335033 6.096618 -20.824457 -3.694652 1.725835 -7.473520 -2.440110 3.085844 0.000212 -0.000128 0.000222 4.101912 -4.794230 4.820635 -39.911585 9.303100 2.542169 -24.575808 -2.192954 2.008626 -4.365954 -1.287300 -0.121625 0.000055 -0.000495 0.000196 8.592116 -4.874068 -10.799925 -33.408583 15.177968 17.063954 -29.021450 1.510756 -0.201010 -28.549920 -1.501684 -8.173449 0.000577 -0.000145 -0.000055 10.291081 -3.262141 -9.209526 -32.552737 12.039528 15.727918 -31.332100 0.140485 1.825175 -19.808655 1.168926 -9.308754 0.000164 -0.000366 0.000374 9.872082 7.086323 21.731646 60.566656 21.731973 -14.570585 -93.029235 81.462188 -77.967515 -40.370211 -12.294877 -31.265560 6.315851 -11.110923 14.930804 0.973826 8.736445 -10.579601 0.279867 -7.710011 1.173846 0.000037 0.000973 -0.000169 -3.146905 2.195089 1.145000 29.164001 -3.375146 6.559046 19.642170 7.114106 0.383002 8.637355 5.294892 1.917725 -0.000352 0.000306 -0.000181 -1.005834 4.052150 2.785635 31.128834 -7.093798 2.914051 23.471195 7.027523 0.371110 4.426825 3.997554 -3.020552 0.000024 0.000752 -0.000151 -3.003543 4.043971 -14.055046 29.949005 -10.498134 17.168838 27.941183 4.009406 -0.776155 27.830981 5.346618 -12.908123 0.000531 0.002167 -0.000912 -1.481308 4.391145 -13.164932 31.969281 -7.820687 14.731492 29.813101 5.289526 1.110623 19.151255 2.184116 -16.126905 -0.003878 0.002303 0.000315 3.977615 8.213496 8.212047 1.059448 -3.937474 16.849441 -5.902644 11.252802 -9.575656 0.547681 -2.426434 -7.433506 0.001369 -0.000015 0.999720 2.701594 -4.286203 -15.197765 0.882422 -1.878024 33.812152 -1.370706 -6.149045 -3.469818 -1.841673 2.058572 0.213647 -0.001635 -0.000040 1.000757
-0.433022 103.604187 -24.934647 -178.036758 -63.128292 179.070431 -3.886665 -3.222889 7.342297 1.221830 0.629025 -7.130866 2.755373 -3.147044 1.767021 3.879127 -5.778535 3.458334 13.911680 -2.421410 8.785027 -3.001941 -31.352337 4.884016 -0.000392 -0.000753 -0.000830 0.831242 0.229866 -2.357520 0.038676 0.420011 -1.650902 -0.405780 2.146944 -1.667639 10.284689 -11.457098 17.908620 -28.708596 -5.981876 -44.751288 45.978135 -71.934806 -39.817971 36.991217 17.593379 -16.930291 -1.680972 13.706642 17.374315 -4.202395 -8.797583 -6.629904 1.586224 6.602302 -2.268266 -0.000457 0.000024 -0.000197 3.706852 -3.251156 3.585013 -43.410235 7.294535 6.112893 -21.405011 -3.952762 1.861307 -7.652156 -2.393109 2.708917 0.000246 -0.000146 0.000275 4.076069 -5.109532 4.770882 -40.438911 9.175888 2.556998 -25.295467 -2.437413 2.173858 -4.634362 -1.287920 -0.474769 -0.000013 -0.000494 0.000152 8.626559 -5.231818 -10.876862 -33.923446 15.172489 16.949598 -29.710381 1.457268 -0.179312 -28.941035 -1.609819 -8.331263 0.000559 -0.000168 0.000018 10.452280 -3.594588 -9.457867 -32.970700 12.084182 15.667009 -31.984508 0.108196 1.887778 -20.322020 1.023683 -9.438248 0.000257 -0.000422 0.000396 9.843094 7.016156 21.859310 60.514279 22.043914 -13.677310 -94.222205 81.680378 -79.388519 -40.218019 -12.111485 -31.063487 6.280570 -11.216314 14.993777 0.936934 8.834110 -10.694100 0.235925 -7.484310 1.165549 0.000014 0.001048 -0.000139 -3.078034 2.292235 1.175330 29.064234 -3.314070 6.560024 19.753360 7.230566 0.382439 8.694464 5.264129 1.786338 -0.000415 0.000380 -0.000203 -1.048895 4.197265 2.670114 31.149283 -7.003762 2.988036 23.449046 7.107194 0.393570 4.404368 3.954910 -3.167376 -0.000031 0.000717 -0.000120 -3.005270 4.199850 -14.205728 29.825633 -10.354664 17.234608 27.951650 4.053882 -0.763754 27.879777 5.381343 -13.019271 0.000577 0.001964 -0.000960 -1.616985 4.626182 -13.358484 31.934528 -7.800595 14.787176 29.752548 5.354027 1.141953 19.189171 2.183327 -16.189136 -0.003746 0.002138 0.000375 4.158036 8.033396 8.384960 1.265656 -3.883135 17.296594 -5.968902 11.683489 -10.068750 0.383566 -2.303205 -7.796028 0.001442 0.000054 0.999708 3.276541 -4.132677 -14.187875 1.084140 -1.717416 32.091114 -1.460371 -5.634467 -4.038226 -1.786372 2.023140 0.419304 -0.001694 -0.000070 1.000897
-0.097592 103.570465 -24.951956 -177.633902 -61.845151 178.697229 -3.812839 -3.375362 7.115457 1.376350 0.559096 -7.375220 2.793924 -3.163079 1.897319 3.983937 -5.762306 3.904466 13.838304 -2.556925 9.970210 -3.098546 -30.730658 5.116457 -0.000443 -0.000774 -0.000847 0.746716 0.220106 -2.334153 0.029350 0.395403 -1.918701 -0.423385 2.121686 -1.937905 10.354642 -10.702784 18.246648 -28.036589 -3.918355 -44.779477 44.338969 -71.442626 -38.518076 37.788748 18.116619 -16.870005 -2.242907 14.099642 17.623521 -4.020793 -8.735939 -6.886999 1.719475 6.498379 -1.996278 -0.000463 0.000011 -0.000235 3.598868 -3.399972 3.722258 -45.119671 7.484475 5.963687 -22.784643 -4.519044 2.255565 -8.218414 -2.240761 1.950182 0.000268 -0.000135 0.000341 4.082692 -5.391336 4.848727 -42.149755 9.343290 2.534816 -26.901344 -2.962170 2.541182 -5.395173 -1.302468 -1.156160 -0.000051 -0.000504 0.000119 8.731180 -5.531946 -10.757214 -35.435651 15.615259 16.683622 -31.330141 1.303595 -0.082180 -30.048038 -1.794138 -8.544147 0.000546 -0.000207 0.000070 10.735474 -3.778462 -9.464609 -34.291569 12.400334 15.553535 -33.484022 -0.034828 2.073243 -21.743434 0.672672 -9.641462 0.000334 -0.000465 0.000387 10.014705 6.878397 21.866498 60.473172 22.493415 -13.024197 -97.444729 81.642637 -82.555719 -39.984293 -12.071335 -30.753714 6.388935 -11.772465 15.254854 0.868984 8.963680 -10.982298 0.162388 -7.142952 1.279969 -0.000024 0.001144 -0.000101 -3.103095 2.366850 1.223718 29.850622 -3.267298 6.456275 20.883546 7.756715 0.522218 9.210819 5.203543 1.181945 -0.000488 0.000449 -0.000215 -1.210740 4.260046 2.594686 32.103961 -6.831540 2.949318 24.543378 7.668312 0.710605 5.065027 4.042728 -3.907231 -0.000083 0.000667 -0.000105 -3.139566 4.277635 -14.236516 30.594393 -10.468618 17.161752 29.153317 4.656739 -0.513510 28.816311 5.849459 -13.592211 0.000632 0.001614 -0.001013 -1.886056 4.660310 -13.350124 32.682221 -7.933148 14.804118 30.746248 6.119298 1.561745 20.305327 2.809674 -16.923834 -0.003535 0.001845 0.000424 4.263865 7.916125 8.911297 1.419550 -3.818298 17.208120 -6.072281 12.337155 -10.159517 0.402239 -2.251233 -8.355837 0.001506 0.000109 0.999726 3.660893 -3.653804 -13.477282 1.346678 -1.525015 31.055732 -1.666525 -4.802361 -4.446480 -1.777769 1.978590 0.448875 -0.001739 -0.000092 1.001181
0.218009 103.642532 -24.973455 -177.758541 -60.853045 178.963655 -3.803772 -3.453279 7.053635 1.492270 0.470431 -7.588750 2.845783 -3.160300 1.939387 4.080435 -5.829520 4.439751 13.913002 -2.665568 11.338567 -3.102916 -30.749738 5.097441 -0.000487 -0.000799 -0.000861 0.689495 0.211391 -2.291495 0.020476 0.412904 -2.206990 -0.441055 2.137549 -2.228560 10.785106 -10.147488 18.375043 -27.567725 -2.100986 -45.195627 43.751419 -70.527669 -38.046401 38.269859 19.004261 -17.454866 -2.711224 14.663633 17.896053 -3.999238 -8.654616 -7.130024 1.807388 6.529096 -1.647689 -0.000468 0.000012 -0.000297 3.402379 -3.353461 3.841819 -46.608567 7.769033 5.740760 -23.823667 -4.874461 2.585919 -8.584703 -2.149021 1.453848 0.000299 -0.000119 0.000384 3.944966 -5.507156 4.954716 -43.660712 9.609595 2.432667 -28.094392 -3.324830 2.856892 -5.864301 -1.322306 -1.631810 -0.000044 -0.000535 0.000116 8.657651 -5.758422 -10.543571 -36.795255 16.172866 16.417767 -32.476737 1.196033 -0.005674 -30.774901 -1.947237 -8.694264 0.000537 -0.000269 0.000086 10.798720 -3.883072 -9.351522 -35.528833 12.735400 15.453174 -34.586243 -0.165226 2.216617 -22.701100 0.398071 -9.814153 0.000378 -0.000483 0.000365 9.945682 6.876220 21.834834 60.653855 22.912211 -12.509942 -101.957948 81.346294 -86.873306 -39.926424 -11.742481 -30.478697 6.504022 -12.311167 15.647121 0.881334 9.098028 -11.233769 0.088605 -6.926206 1.441386 -0.000080 0.001185 -0.000079 -3.053327 2.540014 1.341180 30.519157 -3.327800 6.340891 21.761975 8.071243 0.658642 9.507584 5.149767 0.808483 -0.000578 0.000505 -0.000204 -1.312904 4.447514 2.593017 32.857351 -6.748138 2.875393 25.477034 7.978325 0.908810 5.512595 4.121833 -4.441771 -0.000138 0.000640 -0.000113 -3.315740 4.446517 -14.274432 31.244856 -10.550970 17.069034 30.150859 4.979937 -0.327843 29.538764 6.205068 -14.012629 0.000674 0.001480 -0.001049 -2.267719 4.799408 -13.403665 33.316409 -8.083493 14.790067 31.675403 6.571020 1.857016 21.164027 3.290178 -17.484698 -0.003413 0.001709 0.000445 4.439696 8.213858 9.443807 1.298385 -3.592901 16.680936 -6.098978 12.838258 -9.916863 0.317860 -2.264443 -8.623946 0.001569 0.000132 0.999781 3.890358 -3.389144 -12.756080 1.377899 -1.317723 29.708856 -1.849672 -3.875779 -4.535021 -1.767791 2.002624 0.370219 -0.001776 -0.000102 1.001318
